<svg width="690" height="690" xmlns="http://www.w3.org/2000/svg">
 <defs>
  <linearGradient spreadMethod="pad" y2="0" x2="1" y1="0" x1="0" id="svg_18">
   <stop offset="0" stop-color="#fff"/>
   <stop offset="1" stop-color="#000000"/>
  </linearGradient>
 </defs>
 <g>
  <title>background</title>
  <rect fill="none" id="canvas_background" height="402" width="582" y="-1" x="-1"/>
 </g>
 <g>
  <title>Layer 1</title>
  <g id="bg">
   <g id="svg_1">
    <g id="svg_2">
     <path id="svg_3" d="m349.39453,480.66992c-50.35645,0 -94.3252,-27.35645 -117.85254,-68.02051l-80.03027,46.2041c-4.6543,2.68945 -6.13086,8.71875 -3.24805,13.25586c42.23731,66.48633 116.53223,110.60743 201.13086,110.60743c88.12598,0 165.07129,-47.875 206.24316,-119.03613l-80.48633,-46.46973c-4.31445,-2.49023 -9.80273,-1.20508 -12.57129,2.93555c-24.40527,36.49414 -65.98925,60.52343 -113.18554,60.52343l0,0zm286.32617,-301.37402c4.61426,-2.66309 6.11035,-8.61914 3.3125,-13.15137c-59.91504,-97.03027 -167.22461,-161.69434 -289.63867,-161.69434c-125.89355,0 -235.81348,68.39258 -294.63379,170.0498l80.37695,46.40625c4.39844,2.53906 10.00195,1.14941 12.71094,-3.14551c42.16406,-66.85156 116.66992,-111.26367 201.5459,-111.26367c88.12598,0 165.07129,47.87598 206.24316,119.03613l80.08301,-46.23729z" fill="#D2E1F0" clip-rule="evenodd" fill-rule="evenodd"/>
     <path id="svg_4" d="m349.39453,582.7168c-84.59863,0 -158.89355,-44.12109 -201.13086,-110.60742c-2.87695,-4.53027 -1.40039,-10.57031 3.24805,-13.25586l80.03027,-46.2041c-11.58105,-20.0166 -18.20996,-43.25488 -18.20996,-68.04199c0,-74.78516 60.55762,-136.0625 136.0625,-136.0625c47.19629,0 88.78027,24.0293 113.18555,60.52246c2.76465,4.13379 8.26367,5.42188 12.57129,2.93555l80.48633,-46.46973c-41.17188,-71.16016 -118.11719,-119.03613 -206.24316,-119.03613c-84.87598,0 -159.38184,44.41211 -201.5459,111.26367c-2.70605,4.29102 -8.31836,5.68164 -12.71094,3.14551l-80.37696,-46.40626c-28.95215,50.04004 -45.52344,108.13965 -45.52344,170.10742c0,186.96484 151.39453,340.1582 340.15723,340.1582c122.41406,0 229.72363,-64.66406 289.63867,-161.69531c2.7959,-4.52734 1.29492,-10.49023 -3.3125,-13.15234l-80.08301,-46.2373c-41.17187,71.16113 -118.11718,119.03613 -206.24316,119.03613z" fill="#96AAB9" clip-rule="evenodd" fill-rule="evenodd"/>
    </g>
    <path id="svg_5" d="m636.18457,381.19141l0,-73.16797l-63.36523,36.58398l63.36523,36.58399l0,0zm-110.60937,-52.94922l120.05859,-69.31641c12.56836,-7.25586 28.3457,1.85254 28.3457,16.36621l0,138.63086c0,14.5127 -15.77734,23.62207 -28.3457,16.36621l-120.05859,-69.31641c-12.54786,-7.24511 -12.54786,-25.48535 0,-32.73046z" fill="#00E1C8" clip-rule="evenodd" fill-rule="evenodd"/>
   </g>
  </g>
  <g id="logo"/>
  <ellipse stroke="#000" ry="339.499993" rx="340.499998" id="svg_9" cy="343.9375" cx="349.000012" stroke-width="1.5" fill="#000000"/>
  <path stroke="#000" id="svg_13" d="m456.333992,602.750008l0,0c-149.103649,0 -270.000003,-116.60933 -270.000003,-260.500008c0,-143.872245 120.896354,-260.500008 270.000003,-260.500008l0,0c-84.974244,61.493633 -134.990729,158.010619 -134.990729,260.500008s50.016485,198.987941 134.990729,260.500008z" stroke-opacity="null" stroke-width="1.5" fill="url(#svg_18)"/>
 </g>
</svg>